<svg width="120" height="30" viewBox="0 0 430.6 95.501" xmlns="http://www.w3.org/2000/svg"><g id="svgGroup" stroke-linecap="round" fill-rule="evenodd" font-size="9pt" stroke="#fff" stroke-width="0.5mm" fill="#fff" style="stroke:#fff;stroke-width:0.5mm;fill:#fff"><path d="M 159.2 67.601 L 164 59.601 Q 167.6 62.601 172.1 64.501 A 23.348 23.348 0 0 0 177.47 66.011 A 32.118 32.118 0 0 0 182.6 66.401 A 27.981 27.981 0 0 0 187.147 66.054 Q 189.57 65.655 191.531 64.794 A 13.701 13.701 0 0 0 194 63.401 Q 198.048 60.509 198.195 55.666 A 12.116 12.116 0 0 0 198.2 55.301 A 11.94 11.94 0 0 0 197.863 52.408 A 9.816 9.816 0 0 0 197 50.151 A 8.097 8.097 0 0 0 195.8 48.495 Q 194.53 47.114 192.384 45.772 A 25.81 25.81 0 0 0 192.35 45.751 Q 189.234 43.809 183.465 41.581 A 118.584 118.584 0 0 0 182.2 41.101 Q 175 38.301 170.7 35.451 A 21.931 21.931 0 0 1 167.611 33.003 Q 165.894 31.353 164.838 29.488 A 13.303 13.303 0 0 1 164.55 28.951 Q 162.7 25.301 162.7 20.301 Q 162.7 15.301 165.45 11.251 Q 168.2 7.201 173.55 4.751 A 25.558 25.558 0 0 1 179.45 2.916 Q 182.693 2.301 186.5 2.301 Q 192.7 2.301 197.65 3.551 Q 202.6 4.801 207.3 7.101 L 203.8 15.201 A 31.496 31.496 0 0 0 199.674 13.182 A 41.686 41.686 0 0 0 195.85 11.851 Q 191.3 10.501 186.3 10.501 A 27.187 27.187 0 0 0 182.27 10.781 Q 180.138 11.101 178.4 11.787 A 12.616 12.616 0 0 0 175.9 13.101 A 9.902 9.902 0 0 0 173.737 15.065 A 7.359 7.359 0 0 0 172.1 19.801 A 10.464 10.464 0 0 0 172.392 22.322 A 8.562 8.562 0 0 0 173.2 24.401 Q 174.256 26.32 177.291 28.147 A 23.503 23.503 0 0 0 177.55 28.301 A 33.003 33.003 0 0 0 179.766 29.473 Q 182.035 30.576 185.246 31.823 A 130.016 130.016 0 0 0 187.3 32.601 A 81.228 81.228 0 0 1 192.278 34.63 Q 196.664 36.601 199.65 38.701 A 26.044 26.044 0 0 1 202.69 41.178 Q 204.913 43.307 206.1 45.651 A 17.579 17.579 0 0 1 207.841 51.513 A 22.155 22.155 0 0 1 208 54.201 A 21.71 21.71 0 0 1 207.333 59.701 A 17.105 17.105 0 0 1 204.75 65.301 Q 201.5 69.901 195.75 72.301 A 30.521 30.521 0 0 1 188.34 74.305 A 40.027 40.027 0 0 1 182.6 74.701 Q 175.3 74.701 169.3 72.751 A 38.206 38.206 0 0 1 163.933 70.568 A 28.433 28.433 0 0 1 159.2 67.601 Z M 122.7 73.501 L 82.5 73.501 L 82.5 66.401 L 111.2 29.301 L 83.1 29.301 L 83.1 21.501 L 122.2 21.501 L 122.2 28.401 L 93.6 65.501 L 122.7 65.501 L 122.7 73.501 Z M 230.9 95.501 L 221.9 95.501 L 221.9 34.801 A 11.015 11.015 0 0 0 221.773 33.065 Q 221.442 30.999 220.25 29.951 A 5.718 5.718 0 0 0 217.46 28.628 A 7.991 7.991 0 0 0 216 28.501 L 217.9 21.501 Q 223.762 21.501 226.822 24.464 A 10.15 10.15 0 0 1 229.4 28.801 Q 230.355 27.368 232.452 25.478 A 38.58 38.58 0 0 1 232.65 25.301 A 18.902 18.902 0 0 1 235.351 23.317 A 25.569 25.569 0 0 1 238.25 21.801 A 16.955 16.955 0 0 1 242.809 20.512 A 21.886 21.886 0 0 1 245.9 20.301 Q 251.9 20.301 257.15 23.451 A 22.329 22.329 0 0 1 264.328 30.418 A 27.464 27.464 0 0 1 265.6 32.551 Q 268.8 38.501 268.8 47.001 Q 268.8 55.301 265.6 61.551 A 27.846 27.846 0 0 1 261.666 67.382 A 23.029 23.029 0 0 1 257.25 71.251 Q 252.1 74.701 246.1 74.701 Q 241.5 74.701 237.5 72.851 A 30.352 30.352 0 0 1 234.084 71.012 Q 232.291 69.885 230.9 68.601 L 230.9 95.501 Z M 0 73.301 L 0 3.701 A 100.907 100.907 0 0 1 1.856 3.507 Q 4.753 3.23 8.576 3.008 A 270.552 270.552 0 0 1 8.7 3.001 A 168.416 168.416 0 0 1 13.537 2.796 Q 16.008 2.724 18.745 2.707 A 285.352 285.352 0 0 1 20.6 2.701 Q 29 2.701 34.859 4.789 A 22.604 22.604 0 0 1 40.3 7.551 A 16.711 16.711 0 0 1 44.863 12.208 Q 47.054 15.641 47.191 20.101 A 19.526 19.526 0 0 1 47.2 20.701 A 17.052 17.052 0 0 1 46.573 25.42 A 13.798 13.798 0 0 1 44.25 30.051 Q 41.3 33.901 35.7 36.401 A 30.217 30.217 0 0 1 40.336 38.461 Q 43.813 40.394 46 43.051 Q 49.5 47.301 49.5 53.501 Q 49.5 62.815 42.29 68.429 A 22.979 22.979 0 0 1 42 68.651 A 24.681 24.681 0 0 1 34.623 72.361 Q 28.579 74.301 20.2 74.301 A 221.836 221.836 0 0 1 12.12 74.159 A 187.566 187.566 0 0 1 8.65 74.001 A 227.449 227.449 0 0 1 6.066 73.844 Q 3.259 73.658 1.195 73.438 A 65.535 65.535 0 0 1 0 73.301 Z M 430.3 51.201 L 393.9 51.201 A 24.088 24.088 0 0 0 395.039 56.226 Q 396.375 60.038 399 62.601 Q 403.2 66.701 410.1 66.701 Q 414.6 66.701 418.2 65.751 Q 421.8 64.801 425.1 63.301 L 427.2 71.001 A 40.77 40.77 0 0 1 422.865 72.627 A 51.863 51.863 0 0 1 419.1 73.651 A 38.914 38.914 0 0 1 414.008 74.47 A 52.025 52.025 0 0 1 409 74.701 A 28.318 28.318 0 0 1 401.254 73.695 A 21.108 21.108 0 0 1 391.25 67.551 A 23.521 23.521 0 0 1 386.045 58.011 Q 384.7 53.346 384.7 47.501 A 35.359 35.359 0 0 1 385.533 39.679 A 28.84 28.84 0 0 1 387.65 33.551 A 24.642 24.642 0 0 1 392.666 26.469 A 22.887 22.887 0 0 1 395.9 23.851 A 21.048 21.048 0 0 1 406.159 20.379 A 26.205 26.205 0 0 1 408.2 20.301 Q 415.7 20.301 420.65 23.551 Q 425.6 26.801 428.1 32.301 A 28.185 28.185 0 0 1 430.526 42.164 A 33.434 33.434 0 0 1 430.6 44.401 A 75.204 75.204 0 0 1 430.309 51.097 A 69.426 69.426 0 0 1 430.3 51.201 Z M 377.9 23.401 L 375.2 31.001 A 30.422 30.422 0 0 0 372.296 29.725 A 23.42 23.42 0 0 0 369.85 28.951 A 20.543 20.543 0 0 0 366.807 28.425 A 26.355 26.355 0 0 0 364.2 28.301 A 15.889 15.889 0 0 0 356.947 29.943 A 16.132 16.132 0 0 0 352.45 33.351 Q 347.7 38.401 347.7 47.301 A 25.192 25.192 0 0 0 348.405 53.361 A 21.45 21.45 0 0 0 349.7 57.101 A 18.564 18.564 0 0 0 352.61 61.678 A 16.275 16.275 0 0 0 355.25 64.101 Q 358.8 66.701 363.6 66.701 Q 366.765 66.701 369.168 66.111 A 15.08 15.08 0 0 0 370.1 65.851 Q 372.789 65.004 375.876 63.413 A 49.095 49.095 0 0 0 375.9 63.401 L 378.7 71.001 Q 375.6 72.701 371.75 73.701 Q 367.9 74.701 363 74.701 A 26.803 26.803 0 0 1 355.961 73.811 A 22.074 22.074 0 0 1 350.05 71.251 Q 344.5 67.801 341.5 61.651 Q 338.5 55.501 338.5 47.501 Q 338.5 40.001 341.55 33.801 Q 344.6 27.601 350.3 23.951 A 23.067 23.067 0 0 1 359.968 20.53 A 29.608 29.608 0 0 1 363.7 20.301 Q 368.1 20.301 371.45 21.101 Q 374.8 21.901 377.9 23.401 Z M 316.9 25.701 L 316.9 21.501 L 325.1 21.501 L 325.1 60.901 A 12.15 12.15 0 0 0 325.202 62.536 Q 325.534 64.97 326.95 65.851 Q 328.8 67.001 331 67.001 L 329.1 74.001 A 17.722 17.722 0 0 1 324.835 73.528 Q 319.198 72.128 317.603 66.581 A 13.59 13.59 0 0 1 317.5 66.201 A 21.307 21.307 0 0 1 314.39 69.627 A 28.498 28.498 0 0 1 311.25 72.051 Q 307.3 74.701 301.2 74.701 Q 294.7 74.701 289.4 71.401 A 22.947 22.947 0 0 1 281.987 63.874 A 27.923 27.923 0 0 1 280.95 62.051 A 27.228 27.228 0 0 1 278.32 54.108 A 36.644 36.644 0 0 1 277.8 47.801 A 33.142 33.142 0 0 1 278.797 39.532 A 27.968 27.968 0 0 1 280.95 33.801 Q 284.1 27.601 289.65 23.951 A 22.297 22.297 0 0 1 300.845 20.344 A 27.388 27.388 0 0 1 302.4 20.301 A 22.584 22.584 0 0 1 307.194 20.791 A 18.703 18.703 0 0 1 310.55 21.851 A 26.002 26.002 0 0 1 314.837 24.144 A 22.103 22.103 0 0 1 316.9 25.701 Z M 71 73.501 L 62 73.501 L 62 21.501 L 71 21.501 L 71 73.501 Z M 316.1 60.201 L 316.1 32.301 Q 313.4 30.401 310.15 29.251 Q 306.9 28.101 303.3 28.101 A 15.924 15.924 0 0 0 298.329 28.854 A 14.024 14.024 0 0 0 294.85 30.551 A 16.301 16.301 0 0 0 289.831 35.974 A 19.962 19.962 0 0 0 289.1 37.351 A 20.663 20.663 0 0 0 287.347 43.027 A 27.678 27.678 0 0 0 287 47.501 Q 287 53.101 289.1 57.451 A 17.602 17.602 0 0 0 292.206 61.997 A 15.697 15.697 0 0 0 294.9 64.251 Q 298.6 66.701 303.2 66.701 Q 307 66.701 310.4 64.851 Q 313.8 63.001 316.1 60.201 Z M 230.9 34.901 L 230.9 60.501 Q 233.5 63.201 236.9 64.951 Q 240.3 66.701 244.3 66.701 Q 250.994 66.701 255.217 61.517 A 17.38 17.38 0 0 0 255.35 61.351 A 18.792 18.792 0 0 0 258.844 54.045 Q 259.505 51.355 259.588 48.209 A 34.555 34.555 0 0 0 259.6 47.301 Q 259.6 41.301 257.45 37.001 Q 255.3 32.701 251.75 30.401 Q 248.2 28.101 243.9 28.101 A 14.741 14.741 0 0 0 238.273 29.164 A 14.054 14.054 0 0 0 236.15 30.251 Q 232.7 32.401 230.9 34.901 Z M 20.9 41.101 L 9.5 41.101 L 9.5 65.801 Q 14.8 66.401 20.9 66.401 Q 29.8 66.401 34.8 63.201 Q 39.8 60.001 39.8 53.901 A 11.728 11.728 0 0 0 38.928 49.301 Q 37.826 46.688 35.333 44.813 A 14.027 14.027 0 0 0 34.9 44.501 A 16.7 16.7 0 0 0 30.226 42.299 Q 26.303 41.101 20.9 41.101 Z M 9.5 10.901 L 9.5 33.701 L 20.5 33.701 Q 28.4 33.701 33.05 30.401 Q 37.7 27.101 37.7 21.901 A 10.798 10.798 0 0 0 37.026 18.002 Q 35.939 15.171 33.1 13.351 A 16.643 16.643 0 0 0 28.614 11.387 Q 25.125 10.401 20.5 10.401 Q 17.2 10.401 14.5 10.551 Q 11.8 10.701 9.5 10.901 Z M 393.8 43.901 L 422.3 43.901 A 24.355 24.355 0 0 0 421.896 39.315 Q 421.4 36.731 420.296 34.708 A 12.422 12.422 0 0 0 418.5 32.201 A 12.488 12.488 0 0 0 411.539 28.425 A 18.395 18.395 0 0 0 408 28.101 A 13.58 13.58 0 0 0 402.888 29.036 A 12.524 12.524 0 0 0 398.4 32.151 Q 394.6 36.201 393.8 43.901 Z M 62.137 10.789 A 5.973 5.973 0 0 0 66.5 12.601 A 8.175 8.175 0 0 0 67.996 12.47 A 5.647 5.647 0 0 0 71.1 10.851 Q 72.8 9.101 72.8 6.301 A 7.26 7.26 0 0 0 72.8 6.22 A 6.06 6.06 0 0 0 70.95 1.851 A 7.395 7.395 0 0 0 70.892 1.793 A 6.059 6.059 0 0 0 66.5 0.001 A 8.264 8.264 0 0 0 64.844 0.158 A 5.661 5.661 0 0 0 61.9 1.701 A 5.588 5.588 0 0 0 60.429 4.333 A 7.987 7.987 0 0 0 60.2 6.301 A 5.992 5.992 0 0 0 60.692 8.719 A 6.643 6.643 0 0 0 62.05 10.701 A 7.466 7.466 0 0 0 62.137 10.789 Z" vector-effect="non-scaling-stroke"/></g></svg>